<svg width="27" height="27" viewBox="0 0 27 27" fill="none" xmlns="http://www.w3.org/2000/svg">
<path d="M5.31885 18.1544C3.58072 16.4151 2.7111 15.5467 2.38822 14.4183C2.06422 13.2899 2.34097 12.0918 2.89447 9.69665L3.21285 8.31515C3.67747 6.29915 3.91035 5.29115 4.59997 4.6004C5.29072 3.91078 6.29872 3.6779 8.31472 3.21328L9.69623 2.89378C12.0925 2.3414 13.2895 2.06465 14.4178 2.38753C15.5462 2.71153 16.4147 3.58115 18.1528 5.31928L20.2116 7.37803C23.239 10.4043 24.7498 11.9163 24.7498 13.795C24.7498 15.6749 23.2378 17.1869 20.2127 20.212C17.1865 23.2383 15.6745 24.7503 13.7946 24.7503C11.9158 24.7503 10.4027 23.2383 7.3776 20.2131L5.31885 18.1544Z" stroke="white" stroke-width="1.5"/>
<path d="M17.3134 17.3145C17.9716 16.6541 18.0604 15.6754 17.5114 15.1253C16.9624 14.5763 15.9826 14.6651 15.3233 15.3244C14.6652 15.9836 13.6853 16.0725 13.1363 15.5235C12.5873 14.9745 12.6762 13.9946 13.3354 13.3365M13.3354 13.3365L12.9372 12.9383M13.3354 13.3365C13.7078 12.963 14.1826 12.774 14.6247 12.7774M17.7106 17.7116L17.3123 17.3134C16.8623 17.7645 16.2604 17.949 15.7497 17.8433" stroke="white" stroke-width="1.5" stroke-linecap="round"/>
<path d="M11.2739 11.5802C12.1526 10.7016 12.1526 9.27695 11.2739 8.39827C10.3953 7.51959 8.97065 7.51959 8.09197 8.39827C7.21329 9.27695 7.21329 10.7016 8.09197 11.5802C8.97065 12.4589 10.3953 12.4589 11.2739 11.5802Z" stroke="white" stroke-width="1.5"/>
</svg>
