<svg width="20" height="20" viewBox="0 0 20 20" fill="none" xmlns="http://www.w3.org/2000/svg">
<path d="M14.6668 7.89989L16.2002 5.24989C16.3335 4.99155 16.2335 4.67489 15.9835 4.54155C15.8661 4.48037 15.7301 4.46525 15.6021 4.49917C15.4742 4.53308 15.3635 4.61359 15.2918 4.72489L13.7252 7.42489C12.5467 6.92583 11.28 6.66867 10.0002 6.66867C8.72038 6.66867 7.45364 6.92583 6.27516 7.42489L4.7085 4.72489C4.63274 4.60865 4.51485 4.52632 4.37963 4.49524C4.24441 4.46415 4.10241 4.48673 3.9835 4.55822C3.75016 4.70822 3.67516 5.00822 3.80016 5.24989L5.3335 7.89989C4.06129 8.62665 2.98616 9.65355 2.20181 10.8911C1.41746 12.1286 0.94771 13.5392 0.833496 14.9999H19.1668C19.0526 13.5392 18.5829 12.1286 17.7985 10.8911C17.0142 9.65355 15.939 8.62665 14.6668 7.89989ZM5.8335 12.7082C5.55723 12.7082 5.29228 12.5985 5.09693 12.4031C4.90158 12.2078 4.79183 11.9428 4.79183 11.6666C4.79183 11.3903 4.90158 11.1253 5.09693 10.93C5.29228 10.7346 5.55723 10.6249 5.8335 10.6249C6.10976 10.6249 6.37472 10.7346 6.57007 10.93C6.76542 11.1253 6.87516 11.3903 6.87516 11.6666C6.87516 11.9428 6.76542 12.2078 6.57007 12.4031C6.37472 12.5985 6.10976 12.7082 5.8335 12.7082ZM14.1668 12.7082C13.8906 12.7082 13.6256 12.5985 13.4303 12.4031C13.2349 12.2078 13.1252 11.9428 13.1252 11.6666C13.1252 11.3903 13.2349 11.1253 13.4303 10.93C13.6256 10.7346 13.8906 10.6249 14.1668 10.6249C14.4431 10.6249 14.708 10.7346 14.9034 10.93C15.0988 11.1253 15.2085 11.3903 15.2085 11.6666C15.2085 11.9428 15.0988 12.2078 14.9034 12.4031C14.708 12.5985 14.4431 12.7082 14.1668 12.7082Z" fill="white"/>
</svg>
