<svg width="778" height="566" viewBox="0 0 778 566" fill="none" xmlns="http://www.w3.org/2000/svg">
<path fill-rule="evenodd" clip-rule="evenodd" d="M-373.431 -182.39C-438.171 -151.459 -490.606 -98.3211 -521.311 -32.673C-534.349 -4.78412 -543.437 25.3428 -547.896 56.9617C-549.871 71.1357 -550.944 85.6541 -551 100.402V103.271C-550.944 117.962 -549.871 132.48 -547.896 146.597C-543.437 178.273 -534.349 208.4 -521.311 236.289C-490.606 301.994 -438.171 355.132 -373.431 386.063C-337.872 403.048 -298.588 413.32 -257.159 415.329C-252.249 415.558 -247.282 415.673 -242.315 415.673H263.863L390.69 584.728C415.807 591.442 442.166 595 469.371 595C516.839 595 561.824 584.097 602.012 564.643C666.074 533.598 717.945 480.805 748.368 415.673C766.429 377.053 776.927 334.129 778 288.796V273.531C777.718 260.907 776.702 248.512 774.952 236.346C770.493 204.67 761.406 174.543 748.368 146.654C732.677 113.027 711.228 82.7274 685.377 56.9617C661.107 32.8028 632.999 12.7182 602.012 -2.31657C563.856 -20.7944 521.355 -31.5827 476.483 -32.6157C474.112 -32.6157 471.742 -32.673 469.371 -32.673C462.824 -32.673 456.389 -32.4435 449.955 -32.0418C450.011 -32.2713 450.124 -32.4435 450.181 -32.673H-72.4788L-205.345 -209.762C-217.48 -211.254 -229.785 -212 -242.315 -212C-289.219 -212 -333.639 -201.384 -373.431 -182.39ZM-373.431 83.5882C-372.19 74.4066 -370.045 65.4547 -367.11 56.9617C-349.048 5.02864 -300.451 -32.2714 -243.274 -32.673C-242.992 -32.673 -242.654 -32.673 -242.371 -32.673C-242.089 -32.673 -241.75 -32.673 -241.468 -32.673H-72.5916L-5.36841 56.9617H-3.95734C16.0798 79.3991 39.7294 98.4508 66.0881 113.199C100.462 132.423 139.351 144.301 180.78 146.654H468.637C468.637 146.654 469.089 146.654 469.315 146.654C469.541 146.654 469.766 146.654 469.992 146.654C527.338 146.941 576.048 184.298 594.11 236.346C598.964 250.348 601.616 265.497 601.616 281.221C601.616 355.534 542.352 415.788 469.258 415.788H263.75L220.741 358.461L200.647 331.662C188.682 317.545 175.305 304.691 160.742 293.329C124.901 265.268 82.0049 246.159 35.2139 239.273C22.853 237.436 10.2098 236.461 -2.60266 236.403H-238.533C-239.775 236.403 -241.017 236.403 -242.315 236.403C-243.613 236.403 -244.855 236.403 -246.096 236.403C-302.088 234.797 -349.387 197.841 -367.166 146.711C-370.101 138.218 -372.246 129.324 -373.488 120.2C-374.278 114.232 -374.673 108.149 -374.673 101.951C-374.673 95.7537 -374.278 89.671 -373.488 83.703L-373.431 83.5882Z" fill="#E0E0E0"/>
</svg>
