<svg width="388" height="488" viewBox="0 0 388 488" fill="none" xmlns="http://www.w3.org/2000/svg">
<path fill-rule="evenodd" clip-rule="evenodd" d="M-395.834 -142.967C-448.395 -117.862 -490.967 -74.7327 -515.896 -21.4496C-526.482 1.18637 -533.859 25.6388 -537.48 51.3023C-539.083 62.8066 -539.954 74.5903 -540 86.5604V88.8892C-539.954 100.813 -539.083 112.596 -537.48 124.054C-533.859 149.764 -526.482 174.217 -515.896 196.853C-490.967 250.182 -448.395 293.312 -395.834 318.416C-366.964 332.203 -335.07 340.54 -301.434 342.17C-297.447 342.356 -293.415 342.45 -289.382 342.45H121.578L224.547 479.663C244.94 485.112 266.34 488 288.428 488C326.967 488 363.489 479.15 396.117 463.361C448.129 438.164 490.242 395.313 514.942 342.45C529.606 311.104 538.129 276.265 539 239.47V227.081C538.771 216.834 537.946 206.773 536.525 196.899C532.905 171.189 525.527 146.737 514.942 124.101C502.202 96.8071 484.789 72.2149 463.801 51.3023C444.096 31.6937 421.275 15.3921 396.117 3.18915C365.139 -11.8084 330.633 -20.5647 294.202 -21.403C292.277 -21.403 290.352 -21.4496 288.428 -21.4496C283.112 -21.4496 277.888 -21.2633 272.664 -20.9373C272.71 -21.1236 272.801 -21.2633 272.847 -21.4496H-151.494L-259.367 -165.184C-269.219 -166.395 -279.209 -167 -289.382 -167C-327.463 -167 -363.527 -158.383 -395.834 -142.967ZM-395.834 72.9136C-394.826 65.4614 -393.084 58.1955 -390.702 51.3023C-376.037 9.15088 -336.582 -21.1236 -290.161 -21.4496C-289.932 -21.4496 -289.657 -21.4496 -289.428 -21.4496C-289.199 -21.4496 -288.924 -21.4496 -288.695 -21.4496H-151.586L-97.0079 51.3023H-95.8623C-79.5943 69.5135 -60.3936 84.9768 -38.9932 96.9469C-11.0856 112.55 20.4879 122.191 54.1236 124.101H287.832C287.832 124.101 288.199 124.101 288.382 124.101C288.565 124.101 288.749 124.101 288.932 124.101C335.49 124.334 375.037 154.655 389.701 196.899C393.642 208.264 395.796 220.56 395.796 233.322C395.796 293.638 347.68 342.543 288.336 342.543H121.487L86.5678 296.013L70.254 274.262C60.5391 262.804 49.6785 252.371 37.8557 243.149C8.75665 220.374 -26.0705 204.864 -64.0596 199.275C-74.0953 197.784 -84.3601 196.992 -94.7624 196.946H-286.312C-287.32 196.946 -288.328 196.946 -289.382 196.946C-290.436 196.946 -291.444 196.946 -292.452 196.946C-337.911 195.642 -376.312 165.647 -390.747 124.147C-393.13 117.254 -394.872 110.035 -395.88 102.629C-396.521 97.7852 -396.842 92.8482 -396.842 87.8179C-396.842 82.7877 -396.521 77.8506 -395.88 73.0067L-395.834 72.9136Z" fill="#E0E0E0"/>
</svg>
