<svg width="27" height="27" viewBox="0 0 27 27" fill="none" xmlns="http://www.w3.org/2000/svg">
<path d="M10.125 11.8125C11.057 11.8125 11.8125 11.057 11.8125 10.125C11.8125 9.19302 11.057 8.4375 10.125 8.4375C9.19302 8.4375 8.4375 9.19302 8.4375 10.125C8.4375 11.057 9.19302 11.8125 10.125 11.8125Z" fill="white"/>
<path d="M16.875 11.8125C17.807 11.8125 18.5625 11.057 18.5625 10.125C18.5625 9.19302 17.807 8.4375 16.875 8.4375C15.943 8.4375 15.1875 9.19302 15.1875 10.125C15.1875 11.057 15.943 11.8125 16.875 11.8125Z" fill="white"/>
<path d="M13.5 25.3125C6.98625 25.3125 1.6875 20.0138 1.6875 13.5C1.6875 6.98625 6.98625 1.6875 13.5 1.6875C20.0138 1.6875 25.3125 6.98625 25.3125 13.5C25.3125 20.0138 20.0138 25.3125 13.5 25.3125ZM13.5 3.375C7.91438 3.375 3.375 7.91438 3.375 13.5C3.375 19.0856 7.91438 23.625 13.5 23.625C19.0856 23.625 23.625 19.0856 23.625 13.5C23.625 7.91438 19.0856 3.375 13.5 3.375Z" fill="white"/>
<path d="M13.4996 19.4064C11.0021 19.4064 8.75773 17.8202 7.93086 15.4746C7.87214 15.2687 7.89372 15.0482 7.99124 14.8576C8.08877 14.667 8.25498 14.5205 8.45631 14.4477C8.65765 14.3748 8.87911 14.3811 9.076 14.4652C9.27289 14.5493 9.43053 14.705 9.51711 14.9008C9.80738 15.7253 10.3464 16.4393 11.0597 16.9444C11.773 17.4495 12.6256 17.7208 13.4996 17.7208C14.3737 17.7208 15.2262 17.4495 15.9395 16.9444C16.6528 16.4393 17.1918 15.7253 17.4821 14.9008C17.634 14.4621 18.1234 14.2258 18.5621 14.3946C19.0009 14.5464 19.2371 15.0358 19.0684 15.4746C18.6616 16.6259 17.9073 17.6226 16.9098 18.3269C15.9123 19.0312 14.7207 19.4084 13.4996 19.4064Z" fill="white"/>
</svg>
