<svg width="20" height="26" viewBox="0 0 20 26" fill="none" xmlns="http://www.w3.org/2000/svg">
<path d="M10.0002 19.3004C9.29627 19.3005 8.61811 19.0355 8.10078 18.5582C7.58345 18.0808 7.26491 17.4261 7.20859 16.7244C5.34126 16.0634 3.76746 14.764 2.76503 13.0555C1.76259 11.347 1.39597 9.33929 1.72987 7.38676C2.06378 5.43424 3.07674 3.66246 4.58995 2.38416C6.10317 1.10587 8.01933 0.403275 10.0002 0.400391C12.107 0.400085 14.1371 1.19151 15.6878 2.61775C17.2385 4.04398 18.1966 6.00087 18.3722 8.10039C18.378 8.19146 18.3649 8.28275 18.3336 8.36846C18.3022 8.45417 18.2534 8.53243 18.1902 8.59826C18.127 8.66409 18.0508 8.71605 17.9665 8.75085C17.8821 8.78565 17.7914 8.80252 17.7002 8.80039C17.5128 8.79538 17.3339 8.72103 17.1981 8.59172C17.0623 8.46242 16.9793 8.28735 16.9652 8.10039C16.8405 6.86256 16.3882 5.68032 15.6548 4.67539C14.9214 3.67046 13.9334 2.87915 12.7925 2.38291C11.6517 1.88668 10.3992 1.70346 9.16403 1.85211C7.92884 2.00077 6.7556 2.47592 5.76507 3.22867C4.77454 3.98141 4.00252 4.98454 3.52849 6.13479C3.05446 7.28504 2.89554 8.54084 3.06811 9.77291C3.24067 11.005 3.73848 12.1688 4.51027 13.1446C5.28207 14.1203 6.29998 14.8727 7.4592 15.3244C7.67012 14.8686 7.99975 14.478 8.41354 14.1934C8.82732 13.9088 9.31004 13.7407 9.8111 13.7068C10.3122 13.6729 10.8131 13.7743 11.2615 14.0005C11.7099 14.2268 12.0892 14.5694 12.3596 14.9926C12.63 15.4157 12.7817 15.9039 12.7987 16.4058C12.8156 16.9077 12.6973 17.405 12.456 17.8454C12.2148 18.2859 11.8595 18.6534 11.4274 18.9094C10.9954 19.1653 10.5024 19.3004 10.0002 19.3004ZM3.01279 15.8004H3.1402C3.6862 16.3338 4.2924 16.8042 4.949 17.2004H3.01279C2.2274 17.2004 1.6002 17.8262 1.6002 18.6004C1.6002 20.433 2.471 21.798 3.94239 22.7346C5.44039 23.6908 7.5712 24.2004 10.0002 24.2004C12.4292 24.2004 14.56 23.6908 16.058 22.7346C17.528 21.7966 18.4002 20.4344 18.4002 18.6004C18.4002 18.2291 18.2527 17.873 17.9901 17.6104C17.7276 17.3479 17.3715 17.2004 17.0002 17.2004H14.1428C14.2206 16.737 14.2206 16.2638 14.1428 15.8004H17.0002C17.7428 15.8004 18.455 16.0954 18.9801 16.6205C19.5052 17.1456 19.8002 17.8578 19.8002 18.6004C19.8002 20.9678 18.634 22.7528 16.8112 23.9162C15.0164 25.06 12.5972 25.6004 10.0002 25.6004C7.4032 25.6004 4.984 25.06 3.1892 23.9162C1.3664 22.7542 0.200195 20.9664 0.200195 18.6004C0.200195 17.0422 1.4644 15.8004 3.01279 15.8004ZM15.6002 8.80039C15.6009 9.74776 15.3611 10.6798 14.9032 11.5092C14.4453 12.3385 13.7843 13.038 12.9822 13.5422C12.6083 13.1655 12.1665 12.8629 11.6802 12.6504C12.5645 12.2644 13.289 11.5857 13.7318 10.7284C14.1746 9.87111 14.3087 8.88748 14.1116 7.94293C13.9145 6.99837 13.3981 6.1505 12.6493 5.54188C11.9006 4.93327 10.9651 4.60103 10.0002 4.60103C9.03529 4.60103 8.0998 4.93327 7.35105 5.54188C6.60229 6.1505 6.08593 6.99837 5.88879 7.94293C5.69165 8.88748 5.82575 9.87111 6.26855 10.7284C6.71135 11.5857 7.43584 12.2644 8.3202 12.6504C7.8302 12.8646 7.38919 13.1684 7.0182 13.5422C5.95566 12.8725 5.14826 11.8659 4.725 10.6834C4.50919 10.0791 4.39931 9.44207 4.4002 8.80039C4.4002 7.31518 4.99019 5.8908 6.0404 4.84059C7.0906 3.79039 8.51498 3.20039 10.0002 3.20039C11.4854 3.20039 12.9098 3.79039 13.96 4.84059C15.0102 5.8908 15.6002 7.31518 15.6002 8.80039Z" fill="black"/>
</svg>
