<svg width="28" height="28" viewBox="0 0 28 28" fill="none" xmlns="http://www.w3.org/2000/svg">
<path d="M7.50572 1.92064C6.83916 1.92064 6.19989 2.18543 5.72856 2.65677C5.25723 3.1281 4.99243 3.76736 4.99243 4.43393C4.99243 5.10049 5.25723 5.73976 5.72856 6.21109C6.19989 6.68242 6.83916 6.94721 7.50572 6.94721C8.17229 6.94721 8.81155 6.68242 9.28288 6.21109C9.75421 5.73976 10.019 5.10049 10.019 4.43393C10.019 3.76736 9.75421 3.1281 9.28288 2.65677C8.81155 2.18543 8.17229 1.92064 7.50572 1.92064ZM3.31691 4.43393C3.31691 3.32299 3.75823 2.25755 4.54379 1.47199C5.32934 0.686437 6.39478 0.245117 7.50572 0.245117C8.61666 0.245117 9.6821 0.686437 10.4677 1.47199C11.2532 2.25755 11.6945 3.32299 11.6945 4.43393C11.6945 5.54487 11.2532 6.61031 10.4677 7.39586C9.6821 8.18142 8.61666 8.62274 7.50572 8.62274C6.39478 8.62274 5.32934 8.18142 4.54379 7.39586C3.75823 6.61031 3.31691 5.54487 3.31691 4.43393ZM0.245117 12.5122C0.245117 11.2891 1.23591 10.2983 2.45904 10.2983H8.71433C8.50249 10.8332 8.37949 11.3992 8.35018 11.9738H2.45904C2.31625 11.9738 2.17931 12.0305 2.07834 12.1315C1.97737 12.2324 1.92064 12.3694 1.92064 12.5122V12.9512C1.92064 13.1433 1.92288 14.3061 2.59867 15.4053C3.17952 16.348 4.33451 17.3701 6.79083 17.5354C6.22282 17.9045 5.78031 18.4373 5.5219 19.0635C3.28228 18.6491 1.93963 17.5309 1.17224 16.2821C0.245117 14.7775 0.245117 13.2226 0.245117 12.9545V12.5122ZM18.5832 10.2983C18.7909 10.821 18.9183 11.3851 18.9473 11.9738H24.8396C25.1367 11.9738 25.378 12.2151 25.378 12.5122V12.9512C25.378 13.1433 25.3757 14.3061 24.6988 15.4053C24.1191 16.348 22.9652 17.3701 20.5078 17.5354C21.0719 17.9018 21.5176 18.4346 21.7767 19.0635C24.0163 18.6491 25.359 17.5309 26.1264 16.2821C27.0535 14.7764 27.0535 13.2215 27.0535 12.9534V12.5122C27.0535 11.925 26.8202 11.3619 26.4051 10.9467C25.9899 10.5315 25.4267 10.2983 24.8396 10.2983H18.5832ZM19.7929 1.92064C19.1263 1.92064 18.4871 2.18543 18.0157 2.65677C17.5444 3.1281 17.2796 3.76736 17.2796 4.43393C17.2796 5.10049 17.5444 5.73976 18.0157 6.21109C18.4871 6.68242 19.1263 6.94721 19.7929 6.94721C20.4595 6.94721 21.0987 6.68242 21.5701 6.21109C22.0414 5.73976 22.3062 5.10049 22.3062 4.43393C22.3062 3.76736 22.0414 3.1281 21.5701 2.65677C21.0987 2.18543 20.4595 1.92064 19.7929 1.92064ZM15.6041 4.43393C15.6041 3.32299 16.0454 2.25755 16.831 1.47199C17.6165 0.686437 18.682 0.245117 19.7929 0.245117C20.9038 0.245117 21.9693 0.686437 22.7548 1.47199C23.5404 2.25755 23.9817 3.32299 23.9817 4.43393C23.9817 5.54487 23.5404 6.61031 22.7548 7.39586C21.9693 8.18142 20.9038 8.62274 19.7929 8.62274C18.682 8.62274 17.6165 8.18142 16.831 7.39586C16.0454 6.61031 15.6041 5.54487 15.6041 4.43393ZM6.3887 20.3313C6.3887 19.1082 7.3795 18.1174 8.60263 18.1174H18.696C19.9191 18.1174 20.9099 19.1082 20.9099 20.3313V20.7725C20.9099 21.0406 20.9099 22.5955 19.9828 24.1012C19.011 25.6829 17.1188 27.0535 13.6493 27.0535C10.1799 27.0535 8.28763 25.6818 7.31583 24.1023C6.3887 22.5955 6.3887 21.0417 6.3887 20.7725V20.3313ZM8.60263 19.7929C8.45984 19.7929 8.32289 19.8496 8.22192 19.9506C8.12095 20.0516 8.06423 20.1885 8.06423 20.3313V20.7703C8.06423 20.9624 8.06646 22.1252 8.74226 23.2244C9.37672 24.2543 10.6959 25.378 13.6493 25.378C16.6027 25.378 17.9219 24.2543 18.5552 23.2244C19.2322 22.1263 19.2344 20.9624 19.2344 20.7703V20.3313C19.2344 20.1885 19.1777 20.0516 19.0767 19.9506C18.9757 19.8496 18.8388 19.7929 18.696 19.7929H8.60263ZM11.136 12.253C11.136 11.923 11.201 11.5962 11.3273 11.2912C11.4536 10.9863 11.6388 10.7093 11.8721 10.4759C12.1055 10.2425 12.3826 10.0574 12.6875 9.93107C12.9924 9.80476 13.3193 9.73975 13.6493 9.73975C13.9794 9.73975 14.3062 9.80476 14.6111 9.93107C14.916 10.0574 15.1931 10.2425 15.4265 10.4759C15.6599 10.7093 15.845 10.9863 15.9713 11.2912C16.0976 11.5962 16.1626 11.923 16.1626 12.253C16.1626 12.9196 15.8978 13.5589 15.4265 14.0302C14.9551 14.5015 14.3159 14.7663 13.6493 14.7663C12.9827 14.7663 12.3435 14.5015 11.8721 14.0302C11.4008 13.5589 11.136 12.9196 11.136 12.253ZM13.6493 8.06423C12.5384 8.06423 11.4729 8.50555 10.6874 9.2911C9.90182 10.0767 9.4605 11.1421 9.4605 12.253C9.4605 13.364 9.90182 14.4294 10.6874 15.215C11.4729 16.0005 12.5384 16.4418 13.6493 16.4418C14.7603 16.4418 15.8257 16.0005 16.6112 15.215C17.3968 14.4294 17.8381 13.364 17.8381 12.253C17.8381 11.1421 17.3968 10.0767 16.6112 9.2911C15.8257 8.50555 14.7603 8.06423 13.6493 8.06423Z" fill="white"/>
</svg>
