<svg width="28" height="26" viewBox="0 0 28 26" fill="none" xmlns="http://www.w3.org/2000/svg">
<path d="M0.245117 2.61005C0.245117 1.5299 1.12086 0.655273 2.1999 0.655273H16.1626C17.2427 0.655273 18.1174 1.5299 18.1174 2.61005V13.2217C18.1174 13.7401 17.9114 14.2373 17.5448 14.6039C17.1782 14.9705 16.681 15.1765 16.1626 15.1765H9.24938L6.37418 18.0506C6.14658 18.2781 5.85664 18.433 5.54101 18.4957C5.22538 18.5585 4.89823 18.5262 4.60092 18.4031C4.3036 18.28 4.04947 18.0715 3.87063 17.8039C3.69179 17.5364 3.59628 17.2218 3.59617 16.9V15.1765H2.1999C1.68146 15.1765 1.18425 14.9705 0.817658 14.6039C0.451066 14.2373 0.245117 13.7401 0.245117 13.2217L0.245117 2.61005ZM2.1999 2.3308C2.12583 2.3308 2.0548 2.36022 2.00243 2.41259C1.95006 2.46496 1.92064 2.53599 1.92064 2.61005V13.2217C1.92064 13.3759 2.04575 13.501 2.1999 13.501H4.43393C4.65612 13.501 4.8692 13.5892 5.02631 13.7463C5.18342 13.9034 5.27169 14.1165 5.27169 14.3387V16.7839L8.30997 13.7467C8.38758 13.6687 8.47984 13.6069 8.58144 13.5647C8.68304 13.5225 8.79198 13.5009 8.90199 13.501H16.1626C16.2367 13.501 16.3077 13.4715 16.3601 13.4192C16.4124 13.3668 16.4418 13.2958 16.4418 13.2217V2.61005C16.4418 2.53599 16.4124 2.46496 16.3601 2.41259C16.3077 2.36022 16.2367 2.3308 16.1626 2.3308H2.1999ZM25.0987 9.03289H21.1892C20.967 9.03289 20.7539 8.94463 20.5968 8.78752C20.4397 8.63041 20.3514 8.41732 20.3514 8.19513C20.3514 7.97294 20.4397 7.75985 20.5968 7.60274C20.7539 7.44563 20.967 7.35737 21.1892 7.35737H25.0987C26.1778 7.35737 27.0535 8.23311 27.0535 9.31215V19.9238C27.0535 20.4422 26.8475 20.9394 26.481 21.306C26.1144 21.6726 25.6172 21.8786 25.0987 21.8786H23.7025V23.6021C23.7023 23.9239 23.6068 24.2385 23.428 24.506C23.2492 24.7736 22.995 24.9821 22.6977 25.1052C22.4004 25.2283 22.0732 25.2606 21.7576 25.1978C21.442 25.1351 21.152 24.9802 20.9244 24.7527L18.0492 21.8786H12.253C11.7346 21.8786 11.2374 21.6726 10.8708 21.306C10.5042 20.9394 10.2983 20.4422 10.2983 19.9238V18.2874C10.2983 18.0652 10.3865 17.8521 10.5436 17.695C10.7007 17.5379 10.9138 17.4496 11.136 17.4496C11.3582 17.4496 11.5713 17.5379 11.7284 17.695C11.8855 17.8521 11.9738 18.0652 11.9738 18.2874V19.9238C11.9738 20.0779 12.0989 20.2031 12.253 20.2031H18.3966C18.6189 20.2031 18.8323 20.2913 18.9886 20.4488L22.0269 23.486V21.0408C22.0269 20.8186 22.1152 20.6055 22.2723 20.4484C22.4294 20.2913 22.6425 20.2031 22.8647 20.2031H25.0987C25.1728 20.2031 25.2438 20.1736 25.2962 20.1213C25.3486 20.0689 25.378 19.9979 25.378 19.9238V9.31215C25.378 9.23808 25.3486 9.16706 25.2962 9.11468C25.2438 9.06231 25.1728 9.03289 25.0987 9.03289ZM14.2413 5.4361L8.65625 11.0212C8.57869 11.0993 8.48646 11.1612 8.38485 11.2035C8.28325 11.2458 8.17428 11.2676 8.06423 11.2676C7.95418 11.2676 7.84521 11.2458 7.7436 11.2035C7.642 11.1612 7.54977 11.0993 7.47221 11.0212L4.67967 8.22864C4.60193 8.1509 4.54025 8.0586 4.49818 7.95702C4.4561 7.85544 4.43445 7.74657 4.43445 7.63662C4.43445 7.52668 4.4561 7.4178 4.49818 7.31623C4.54025 7.21465 4.60193 7.12235 4.67967 7.0446C4.75742 6.96686 4.84971 6.90519 4.95129 6.86311C5.05287 6.82104 5.16174 6.79938 5.27169 6.79938C5.38164 6.79938 5.49051 6.82104 5.59209 6.86311C5.69367 6.90519 5.78596 6.96686 5.86371 7.0446L8.06423 9.24401L13.0573 4.25206C13.135 4.17432 13.2273 4.11265 13.3289 4.07057C13.4305 4.0285 13.5394 4.00684 13.6493 4.00684C13.7593 4.00684 13.8681 4.0285 13.9697 4.07057C14.0713 4.11265 14.1636 4.17432 14.2413 4.25206C14.3191 4.32981 14.3807 4.42211 14.4228 4.52369C14.4649 4.62526 14.4865 4.73414 14.4865 4.84408C14.4865 4.95403 14.4649 5.0629 14.4228 5.16448C14.3807 5.26606 14.3191 5.35836 14.2413 5.4361Z" fill="white"/>
</svg>
