<svg width="19" height="21" viewBox="0 0 19 21" fill="none" xmlns="http://www.w3.org/2000/svg">
<path d="M11.167 20.6483L11.0993 18H9.41699C6.98488 18 4.91871 17.1495 3.21849 15.4485C1.51749 13.7483 0.666992 11.6821 0.666992 9.25C0.666992 6.81789 1.51749 4.75172 3.21849 3.0515C4.91871 1.3505 6.98488 0.5 9.41699 0.5C10.6327 0.5 11.7713 0.727889 12.833 1.18367C13.8939 1.63867 14.8206 2.26206 15.6132 3.05383C16.4049 3.84639 17.0283 4.77311 17.4833 5.834C17.9391 6.89567 18.167 8.03433 18.167 9.25C18.167 10.4392 17.9924 11.5814 17.6432 12.6765C17.2932 13.7708 16.8102 14.8057 16.1942 15.781C15.5766 16.7563 14.8377 17.6547 13.9775 18.476C13.1173 19.2973 12.1804 20.0211 11.167 20.6472M12.3337 18.4083C13.7142 17.2417 14.8373 15.8759 15.703 14.311C16.5687 12.7461 17.0011 11.0591 17.0003 9.25C17.0003 7.13056 16.2661 5.337 14.7977 3.86933C13.3292 2.40167 11.5357 1.66744 9.41699 1.66667C7.29755 1.66667 5.50399 2.40089 4.03633 3.86933C2.56866 5.33778 1.83444 7.13133 1.83366 9.25C1.83366 11.3694 2.56788 13.1634 4.03633 14.6318C5.50477 16.1003 7.29833 16.8341 9.41699 16.8333H12.3337V18.4083ZM9.45549 15.1662C9.6966 15.1662 9.89999 15.0833 10.0657 14.9177C10.2313 14.7512 10.3142 14.5478 10.3142 14.3075C10.3142 14.0664 10.2313 13.863 10.0657 13.6973C9.89921 13.5309 9.69583 13.4477 9.45549 13.4477C9.21438 13.4477 9.01099 13.5309 8.84533 13.6973C8.67888 13.863 8.59566 14.0664 8.59566 14.3075C8.59566 14.5486 8.67888 14.752 8.84533 14.9177C9.01099 15.0833 9.21438 15.1662 9.45549 15.1662ZM8.94566 11.7537H9.97816C10.0077 11.2753 10.0995 10.8969 10.2535 10.6185C10.4075 10.3401 10.773 9.91228 11.3502 9.33517C11.6854 9.00072 11.951 8.65889 12.147 8.30967C12.343 7.96122 12.441 7.56106 12.441 7.10917C12.441 6.26761 12.1505 5.6065 11.5695 5.12583C10.9885 4.64439 10.2858 4.40367 9.46133 4.40367C8.7411 4.40367 8.13055 4.60083 7.62966 4.99517C7.12799 5.3895 6.76049 5.85967 6.52716 6.40567L7.48733 6.77783C7.64444 6.4325 7.87388 6.11789 8.17566 5.834C8.47821 5.55089 8.90677 5.40933 9.46133 5.40933C10.1217 5.40933 10.6089 5.58861 10.9232 5.94717C11.2382 6.3065 11.3957 6.6985 11.3957 7.12317C11.3957 7.51361 11.2945 7.84378 11.0923 8.11367C10.8901 8.38356 10.6307 8.67717 10.3142 8.9945C9.75416 9.48761 9.38588 9.93094 9.20932 10.3245C9.03355 10.7165 8.94566 11.1929 8.94566 11.7537Z" fill="black"/>
</svg>
