<svg width="32" height="32" viewBox="0 0 32 32" fill="none" xmlns="http://www.w3.org/2000/svg">
<path d="M27.866 2.66699H4.13268C3.7437 2.66699 3.37065 2.82152 3.09559 3.09657C2.82054 3.37162 2.66602 3.74467 2.66602 4.13366V27.867C2.66602 28.256 2.82054 28.629 3.09559 28.9041C3.37065 29.1791 3.7437 29.3337 4.13268 29.3337H16.906V19.0003H13.4393V15.0003H16.906V12.0003C16.8342 11.296 16.9174 10.5845 17.1496 9.91571C17.3819 9.24692 17.7577 8.63705 18.2506 8.12887C18.7436 7.6207 19.3417 7.22651 20.0031 6.97398C20.6645 6.72144 21.3732 6.61666 22.0793 6.66699C23.1171 6.66061 24.1544 6.71403 25.186 6.82699V10.427H23.066C21.386 10.427 21.066 11.227 21.066 12.387V14.9603H25.066L24.546 18.9603H21.066V29.3337H27.866C28.0586 29.3337 28.2493 29.2957 28.4273 29.222C28.6052 29.1483 28.7669 29.0403 28.9031 28.9041C29.0393 28.7679 29.1473 28.6062 29.221 28.4283C29.2947 28.2503 29.3327 28.0596 29.3327 27.867V4.13366C29.3327 3.94105 29.2947 3.75033 29.221 3.57239C29.1473 3.39445 29.0393 3.23276 28.9031 3.09657C28.7669 2.96038 28.6052 2.85234 28.4273 2.77864C28.2493 2.70493 28.0586 2.66699 27.866 2.66699Z" fill="#1877F2"/>
</svg>
