<svg width="60" height="60" viewBox="0 0 60 60" fill="none" xmlns="http://www.w3.org/2000/svg">
<path d="M11.5375 47.5C10.3875 47.5 9.4275 47.115 8.6575 46.345C7.88583 45.5733 7.5 44.6125 7.5 43.4625V16.5375C7.5 15.3875 7.88583 14.4275 8.6575 13.6575C9.4275 12.8858 10.3875 12.5 11.5375 12.5H48.4625C49.6125 12.5 50.5725 12.8858 51.3425 13.6575C52.1142 14.4275 52.5 15.3875 52.5 16.5375V43.4625C52.5 44.6125 52.115 45.5725 51.345 46.3425C50.5733 47.1142 49.6125 47.5 48.4625 47.5H11.5375ZM11.5375 45H48.4625C48.8458 45 49.1983 44.84 49.52 44.52C49.84 44.1983 50 43.8458 50 43.4625V16.5375C50 16.1542 49.84 15.8017 49.52 15.48C49.1983 15.16 48.8458 15 48.4625 15H11.5375C11.1542 15 10.8017 15.16 10.48 15.48C10.16 15.8017 10 16.1542 10 16.5375V43.4625C10 43.8458 10.16 44.1983 10.48 44.52C10.8017 44.84 11.1542 45 11.5375 45ZM42.4375 45L48.1875 23.28L17.6875 15L11.9375 36.575L42.4375 45ZM40.655 41.905L14.985 34.855L19.47 18.05L45.14 25.05L40.655 41.905Z" fill="black"/>
</svg>
