<svg width="61" height="60" viewBox="0 0 61 60" fill="none" xmlns="http://www.w3.org/2000/svg">
<path d="M23.1665 35L38.1665 20M24.4165 21.25H24.4415M36.9165 33.75H36.9415M48.1665 52.5V12.5C48.1665 11.1739 47.6397 9.90215 46.702 8.96447C45.7644 8.02678 44.4926 7.5 43.1665 7.5H18.1665C16.8404 7.5 15.5687 8.02678 14.631 8.96447C13.6933 9.90215 13.1665 11.1739 13.1665 12.5V52.5L21.9165 47.5L30.6665 52.5L39.4165 47.5L48.1665 52.5ZM25.6665 21.25C25.6665 21.5815 25.5348 21.8995 25.3004 22.1339C25.066 22.3683 24.748 22.5 24.4165 22.5C24.085 22.5 23.767 22.3683 23.5326 22.1339C23.2982 21.8995 23.1665 21.5815 23.1665 21.25C23.1665 20.9185 23.2982 20.6005 23.5326 20.3661C23.767 20.1317 24.085 20 24.4165 20C24.748 20 25.066 20.1317 25.3004 20.3661C25.5348 20.6005 25.6665 20.9185 25.6665 21.25ZM38.1665 33.75C38.1665 34.0815 38.0348 34.3995 37.8004 34.6339C37.566 34.8683 37.248 35 36.9165 35C36.585 35 36.267 34.8683 36.0326 34.6339C35.7982 34.3995 35.6665 34.0815 35.6665 33.75C35.6665 33.4185 35.7982 33.1005 36.0326 32.8661C36.267 32.6317 36.585 32.5 36.9165 32.5C37.248 32.5 37.566 32.6317 37.8004 32.8661C38.0348 33.1005 38.1665 33.4185 38.1665 33.75Z" stroke="black" stroke-width="2" stroke-linecap="round" stroke-linejoin="round"/>
</svg>
