<svg width="32" height="32" viewBox="0 0 32 32" fill="none" xmlns="http://www.w3.org/2000/svg">
<g clip-path="url(#clip0_175_5841)">
<path d="M29 0.750116H3C2.41008 0.744112 1.84187 0.972377 1.42005 1.38482C0.998227 1.79727 0.757253 2.36021 0.75 2.95012V29.0551C0.758564 29.6442 1.00012 30.2058 1.42179 30.6172C1.84347 31.0285 2.41093 31.2561 3 31.2501H29C29.59 31.2548 30.1578 31.0258 30.5794 30.6131C31.001 30.2003 31.2421 29.6375 31.25 29.0476V2.94262C31.2395 2.35444 30.9972 1.79418 30.5759 1.38363C30.1546 0.973077 29.5883 0.74541 29 0.750116Z" fill="#0076B2"/>
<path d="M5.2643 12.1826H9.7918V26.7501H5.2643V12.1826ZM7.5293 4.93262C8.04858 4.93262 8.5562 5.08663 8.98793 5.37518C9.41966 5.66373 9.75611 6.07385 9.95472 6.55365C10.1533 7.03345 10.2052 7.56138 10.1037 8.07065C10.0022 8.57992 9.75193 9.04764 9.38457 9.41466C9.0172 9.78167 8.54924 10.0315 8.03988 10.1325C7.53051 10.2335 7.00263 10.1811 6.52302 9.98208C6.04341 9.78302 5.63361 9.44618 5.34547 9.01417C5.05734 8.58216 4.9038 8.0744 4.9043 7.55512C4.90496 6.85936 5.18181 6.19232 5.67403 5.70058C6.16624 5.20884 6.83354 4.93262 7.5293 4.93262ZM12.6318 12.1826H16.9718V14.1826H17.0318C17.6368 13.0376 19.1118 11.8301 21.3143 11.8301C25.8993 11.8201 26.7493 14.8376 26.7493 18.7501V26.7501H22.2218V19.6626C22.2218 17.9751 22.1918 15.8026 19.8693 15.8026C17.5468 15.8026 17.1518 17.6426 17.1518 19.5526V26.7501H12.6318V12.1826Z" fill="white"/>
</g>
<defs>
<clipPath id="clip0_175_5841">
<rect width="32" height="32" fill="white"/>
</clipPath>
</defs>
</svg>
