<svg width="61" height="37" viewBox="0 0 61 37" fill="none" xmlns="http://www.w3.org/2000/svg">
<path fill-rule="evenodd" clip-rule="evenodd" d="M8.15026 1.3576C5.17876 2.77572 2.77202 5.21205 1.36269 8.22193C0.764249 9.5006 0.34715 10.8819 0.142487 12.3316C0.0518135 12.9814 0.00259067 13.6471 0 14.3233V14.4548C0.00259067 15.1284 0.0518135 15.794 0.142487 16.4412C0.34715 17.8936 0.764249 19.2748 1.36269 20.5535C2.77202 23.566 5.17876 26.0023 8.15026 27.4205C9.78238 28.1992 11.5855 28.6702 13.487 28.7623C13.7124 28.7728 13.9404 28.7781 14.1684 28.7781H37.4016L43.2228 36.529C44.3756 36.8369 45.5855 37 46.8342 37C49.013 37 51.0777 36.5001 52.9223 35.6082C55.8627 34.1848 58.2435 31.7643 59.6399 28.7781C60.4689 27.0074 60.9508 25.0394 61 22.9609V22.261C60.987 21.6822 60.9404 21.1139 60.8601 20.5561C60.6554 19.1038 60.2383 17.7225 59.6399 16.4439C58.9197 14.9021 57.9352 13.5129 56.7487 12.3316C55.6347 11.2239 54.3446 10.3031 52.9223 9.61374C51.171 8.76655 49.2202 8.27192 47.1606 8.22456C47.0518 8.22456 46.943 8.22193 46.8342 8.22193C46.5337 8.22193 46.2383 8.23245 45.943 8.25087C45.9456 8.24035 45.9508 8.23245 45.9534 8.22193H21.9637L15.8653 0.10261C15.3083 0.0342032 14.7435 0 14.1684 0C12.0155 0 9.97668 0.486738 8.15026 1.3576ZM8.15026 13.5524C8.20725 13.1314 8.3057 12.721 8.44042 12.3316C9.26943 9.95051 11.5 8.24035 14.1244 8.22193C14.1373 8.22193 14.1529 8.22193 14.1658 8.22193C14.1788 8.22193 14.1943 8.22193 14.2073 8.22193H21.9585L25.044 12.3316H25.1088C26.0285 13.3603 27.114 14.2338 28.3238 14.91C29.9016 15.7914 31.6865 16.336 33.5881 16.4439H46.8005C46.8005 16.4439 46.8212 16.4439 46.8316 16.4439C46.842 16.4439 46.8523 16.4439 46.8627 16.4439C49.4948 16.457 51.7306 18.1698 52.5596 20.5561C52.7824 21.1981 52.9041 21.8927 52.9041 22.6136C52.9041 26.0208 50.1839 28.7833 46.829 28.7833H37.3964L35.4223 26.1549L34.5 24.9263C33.9508 24.279 33.3368 23.6897 32.6684 23.1687C31.0233 21.8822 29.0544 21.006 26.9067 20.6903C26.3394 20.6061 25.7591 20.5614 25.171 20.5588H14.342C14.285 20.5588 14.228 20.5588 14.1684 20.5588C14.1088 20.5588 14.0518 20.5588 13.9948 20.5588C11.4249 20.4851 9.25389 18.7907 8.43782 16.4465C8.30311 16.0571 8.20466 15.6493 8.14767 15.231C8.1114 14.9573 8.09326 14.6784 8.09326 14.3943C8.09326 14.1101 8.1114 13.8313 8.14767 13.5576L8.15026 13.5524Z" fill="black"/>
</svg>
