<svg width="27" height="27" viewBox="0 0 27 27" fill="none" xmlns="http://www.w3.org/2000/svg">
<path d="M13.5 2.125L3.375 5.375V15.125C3.375 20.5104 7.90752 24.875 13.5 24.875C19.0925 24.875 23.625 20.5104 23.625 15.125V5.375L13.5 2.125ZM21.7266 15.125C21.7266 19.4998 18.0431 23.0469 13.5 23.0469C8.95693 23.0469 5.27344 19.4998 5.27344 15.125V6.74609L13.5 3.95312L21.7266 6.74609V15.125Z" fill="white"/>
<path d="M9.97739 12.5628C9.88941 12.4777 9.78484 12.4102 9.66968 12.3641C9.55452 12.318 9.43105 12.2943 9.30634 12.2943C9.18164 12.2943 9.05816 12.318 8.943 12.3641C8.82785 12.4102 8.72328 12.4777 8.6353 12.5628C8.54692 12.6476 8.47679 12.7483 8.42893 12.8592C8.38108 12.97 8.35645 13.0889 8.35645 13.209C8.35645 13.3291 8.38108 13.448 8.42893 13.5589C8.47679 13.6698 8.54692 13.7705 8.6353 13.8552L12.0472 17.1408L12.1026 17.1941C12.1858 17.2744 12.2846 17.3381 12.3935 17.3815C12.5023 17.425 12.6189 17.4474 12.7367 17.4474C12.8545 17.4474 12.9712 17.425 13.08 17.3815C13.1888 17.3381 13.2876 17.2744 13.3708 17.1941L19.2639 11.5193C19.3473 11.4392 19.4134 11.344 19.4586 11.2392C19.5037 11.1344 19.5269 11.0221 19.5269 10.9086C19.5269 10.7952 19.5037 10.6829 19.4586 10.5781C19.4134 10.4733 19.3473 10.3781 19.2639 10.298L19.1901 10.2269C19.1069 10.1466 19.008 10.0829 18.8992 10.0395C18.7904 9.996 18.6738 9.97363 18.556 9.97363C18.4382 9.97363 18.3215 9.996 18.2127 10.0395C18.1039 10.0829 18.005 10.1466 17.9218 10.2269L12.7354 15.2187L9.97739 12.5628Z" fill="white"/>
</svg>
