<svg width="26" height="26" viewBox="0 0 26 26" fill="none" xmlns="http://www.w3.org/2000/svg">
<path d="M11.2504 4.25039C11.2504 3.22931 10.8448 2.25004 10.1228 1.52803C9.40074 0.806015 8.42147 0.400391 7.40039 0.400391C6.37931 0.400391 5.40004 0.806015 4.67803 1.52803C3.95601 2.25004 3.55039 3.22931 3.55039 4.25039C3.55039 5.27147 3.95601 6.25074 4.67803 6.97275C5.40004 7.69477 6.37931 8.10039 7.40039 8.10039C8.42147 8.10039 9.40074 7.69477 10.1228 6.97275C10.8448 6.25074 11.2504 5.27147 11.2504 4.25039ZM4.95039 4.25039C4.95039 3.92865 5.01376 3.61006 5.13689 3.31282C5.26001 3.01557 5.44048 2.74548 5.66798 2.51798C5.89548 2.29048 6.16557 2.11001 6.46282 1.98689C6.76006 1.86376 7.07865 1.80039 7.40039 1.80039C7.72213 1.80039 8.04072 1.86376 8.33797 1.98689C8.63521 2.11001 8.9053 2.29048 9.1328 2.51798C9.36031 2.74548 9.54077 3.01557 9.6639 3.31282C9.78702 3.61006 9.85039 3.92865 9.85039 4.25039C9.85039 4.90017 9.59227 5.52334 9.1328 5.9828C8.67334 6.44227 8.05017 6.70039 7.40039 6.70039C6.75061 6.70039 6.12744 6.44227 5.66798 5.9828C5.20852 5.52334 4.95039 4.90017 4.95039 4.25039ZM2.50039 9.50039H8.35659C8.12699 9.93439 7.95619 10.4048 7.85539 10.9004H2.50039C2.31474 10.9004 2.13669 10.9741 2.00542 11.1054C1.87414 11.2367 1.80039 11.4147 1.80039 11.6004V12.3004C1.80039 14.0644 3.33899 15.96 6.13479 16.4024C5.68399 16.7104 5.30879 17.1206 5.04139 17.598C2.08739 16.7986 0.400391 14.5222 0.400391 12.3004V11.6004C0.400391 11.0434 0.62164 10.5093 1.01547 10.1155C1.40929 9.72164 1.94344 9.50039 2.50039 9.50039ZM10.031 9.50039C10.7366 8.64639 11.8048 8.10039 13.0004 8.10039C13.8388 8.09893 14.6547 8.37179 15.3235 8.87734C15.9924 9.3829 16.4775 10.0934 16.7048 10.9004C16.9074 11.6207 16.896 12.3844 16.6719 13.0983C16.4479 13.8122 16.0208 14.4455 15.4429 14.9208C14.865 15.3961 14.1613 15.6929 13.4175 15.775C12.6738 15.8572 11.9223 15.721 11.2546 15.3832C10.7405 15.1216 10.2918 14.7478 9.94164 14.2894C9.59145 13.8311 9.34872 13.2999 9.23139 12.7352C9.11406 12.1704 9.12512 11.5865 9.26376 11.0266C9.40241 10.4667 9.66369 9.94513 10.031 9.50039ZM10.7884 10.9004C10.6505 11.1912 10.5713 11.5064 10.5552 11.8279C10.5391 12.1494 10.5865 12.4709 10.6946 12.774C10.9131 13.3863 11.3658 13.8867 11.9532 14.1652C12.5406 14.4437 13.2146 14.4774 13.8268 14.259C14.4391 14.0405 14.9395 13.5878 15.218 13.0004C15.4965 12.4128 15.5301 11.7387 15.3115 11.1263C15.093 10.5139 14.6401 10.0134 14.0525 9.73489C13.4649 9.45641 12.7908 9.42276 12.1784 9.64133C11.566 9.85991 11.0655 10.3128 10.787 10.9004M20.9594 17.598C20.6927 17.1203 20.3183 16.7114 19.866 16.4038C22.6604 15.96 24.2004 14.063 24.2004 12.3004V11.6004C24.2004 11.4147 24.1266 11.2367 23.9954 11.1054C23.8641 10.9741 23.686 10.9004 23.5004 10.9004H18.1454C18.0465 10.4123 17.8782 9.9408 17.6456 9.50039H23.5004C24.0573 9.50039 24.5915 9.72164 24.9853 10.1155C25.3791 10.5093 25.6004 11.0434 25.6004 11.6004V12.3004C25.6004 14.5222 23.912 16.7972 20.9594 17.598ZM19.2822 17.7198C18.9001 17.3844 18.4088 17.1997 17.9004 17.2004H8.10039C7.82441 17.1997 7.551 17.2535 7.29588 17.3587C7.04077 17.464 6.80897 17.6187 6.61382 17.8138C6.41867 18.009 6.26401 18.2408 6.15874 18.4959C6.05347 18.751 5.99965 19.0244 6.00039 19.3004V20.0004C6.00039 22.7598 8.60439 25.6004 13.0004 25.6004C17.3964 25.6004 20.0004 22.7598 20.0004 20.0004V19.3004C20.0004 18.6704 19.7232 18.1048 19.2822 17.7184M7.40039 19.3004C7.40039 19.1147 7.47414 18.9367 7.60542 18.8054C7.73669 18.6741 7.91474 18.6004 8.10039 18.6004H17.9004C18.086 18.6004 18.2641 18.6741 18.3954 18.8054C18.5266 18.9367 18.6004 19.1147 18.6004 19.3004V20.0004C18.6004 22.0136 16.5956 24.2004 13.0004 24.2004C9.40519 24.2004 7.40039 22.0136 7.40039 20.0004V19.3004ZM18.6004 0.400391C19.6215 0.400391 20.6007 0.806015 21.3228 1.52803C22.0448 2.25004 22.4504 3.22931 22.4504 4.25039C22.4504 5.27147 22.0448 6.25074 21.3228 6.97275C20.6007 7.69477 19.6215 8.10039 18.6004 8.10039C17.5793 8.10039 16.6 7.69477 15.878 6.97275C15.156 6.25074 14.7504 5.27147 14.7504 4.25039C14.7504 3.22931 15.156 2.25004 15.878 1.52803C16.6 0.806015 17.5793 0.400391 18.6004 0.400391ZM18.6004 1.80039C17.9506 1.80039 17.3274 2.05852 16.868 2.51798C16.4085 2.97744 16.1504 3.60061 16.1504 4.25039C16.1504 4.90017 16.4085 5.52334 16.868 5.9828C17.3274 6.44227 17.9506 6.70039 18.6004 6.70039C19.2502 6.70039 19.8733 6.44227 20.3328 5.9828C20.7923 5.52334 21.0504 4.90017 21.0504 4.25039C21.0504 3.60061 20.7923 2.97744 20.3328 2.51798C19.8733 2.05852 19.2502 1.80039 18.6004 1.80039Z" fill="black"/>
</svg>
